<svg width="22" height="22" viewBox="0 0 22 22" fill="none" xmlns="http://www.w3.org/2000/svg">
<path d="M18.6415 20.777L1.55779 3.6933C0.974096 3.10961 0.974096 2.14153 1.55779 1.55784C2.14148 0.97415 3.10956 0.97415 3.69325 1.55784L20.7769 18.6415C21.3606 19.2252 21.3606 20.1933 20.7769 20.777C20.1932 21.3607 19.2252 21.3607 18.6415 20.777Z" fill="white"/>
<path d="M1.55778 20.777C0.97409 20.1933 0.97409 19.2252 1.55778 18.6415L18.6415 1.55784C19.2252 0.97415 20.1932 0.97415 20.7769 1.55784C21.3606 2.14153 21.3606 3.10961 20.7769 3.6933L3.69324 20.777C3.10955 21.3607 2.14148 21.3607 1.55778 20.777Z" fill="white"/>
</svg>
