<svg width="69" height="69" viewBox="0 0 69 69" fill="none" xmlns="http://www.w3.org/2000/svg">
<path d="M41.6415 43.7769L24.5578 26.6932C23.9741 26.1095 23.9741 25.1414 24.5578 24.5577C25.1415 23.974 26.1096 23.974 26.6932 24.5577L43.7769 41.6414C44.3606 42.2251 44.3606 43.1932 43.7769 43.7769C43.1932 44.3606 42.2252 44.3606 41.6415 43.7769Z" fill="white"/>
<path d="M24.5578 43.7769C23.9741 43.1932 23.9741 42.2251 24.5578 41.6414L41.6415 24.5577C42.2252 23.974 43.1932 23.974 43.7769 24.5577C44.3606 25.1414 44.3606 26.1095 43.7769 26.6932L26.6932 43.7769C26.1096 44.3606 25.1415 44.3606 24.5578 43.7769Z" fill="white"/>
</svg>
