<svg width="21" height="19" viewBox="0 0 21 19" fill="none" xmlns="http://www.w3.org/2000/svg">
<path d="M19.4571 11.962H15.5701C14.8902 11.962 14.2382 11.6919 13.7574 11.2111C13.2767 10.7304 13.0066 10.0783 13.0066 9.39846C13.0066 8.71858 13.2767 8.06654 13.7574 7.58579C14.2382 7.10504 14.8902 6.83496 15.5701 6.83496H19.4271" stroke="white" stroke-width="1.5" stroke-linecap="round" stroke-linejoin="round"/>
<path d="M16.0079 9.33911H15.7109" stroke="white" stroke-width="1.5" stroke-linecap="round" stroke-linejoin="round"/>
<path d="M5.89209 5.42993H9.95209" stroke="white" stroke-width="1.5" stroke-linecap="round" stroke-linejoin="round"/>
<path fill-rule="evenodd" clip-rule="evenodd" d="M1 9.539C1 3.134 3.326 1 10.301 1C17.276 1 19.601 3.134 19.601 9.54C19.601 15.943 17.276 18.078 10.301 18.078C3.325 18.078 1.001 15.943 1.001 9.539H1Z" stroke="white" stroke-width="1.5" stroke-linecap="round" stroke-linejoin="round"/>
</svg>
