<svg width="30" height="30" viewBox="0 0 30 30" fill="none" xmlns="http://www.w3.org/2000/svg">
<path d="M7.49996 3.74998C7.49996 5.82184 5.82184 7.49996 3.74998 7.49996C1.67812 7.49996 0 5.82184 0 3.74998C0 1.67812 1.67812 0 3.74998 0C5.82184 0 7.49996 1.67812 7.49996 3.74998Z" fill="black"/>
<path d="M7.49996 14.9999C7.49996 17.0717 5.82184 18.7498 3.74998 18.7498C1.67812 18.7498 0 17.0717 0 14.9999C0 12.928 1.67812 11.2499 3.74998 11.2499C5.82184 11.2499 7.49996 12.928 7.49996 14.9999Z" fill="black"/>
<path d="M3.74998 29.9998C5.82184 29.9998 7.49996 28.3217 7.49996 26.2499C7.49996 24.178 5.82184 22.4999 3.74998 22.4999C1.67812 22.4999 0 24.178 0 26.2499C0 28.3217 1.67812 29.9998 3.74998 29.9998Z" fill="black"/>
<path d="M18.7502 3.74998C18.7502 5.82184 17.0721 7.49996 15.0002 7.49996C12.9284 7.49996 11.2502 5.82184 11.2502 3.74998C11.2502 1.67812 12.9284 0 15.0002 0C17.0721 0 18.7502 1.67812 18.7502 3.74998Z" fill="black"/>
<path d="M15.0002 18.7498C17.0721 18.7498 18.7502 17.0717 18.7502 14.9999C18.7502 12.928 17.0721 11.2499 15.0002 11.2499C12.9284 11.2499 11.2502 12.928 11.2502 14.9999C11.2502 17.0717 12.9284 18.7498 15.0002 18.7498Z" fill="black"/>
<path d="M18.7502 26.2499C18.7502 28.3217 17.0721 29.9998 15.0002 29.9998C12.9284 29.9998 11.2502 28.3217 11.2502 26.2499C11.2502 24.178 12.9284 22.4999 15.0002 22.4999C17.0721 22.4999 18.7502 24.178 18.7502 26.2499Z" fill="black"/>
<path d="M26.25 7.49996C28.3218 7.49996 30 5.82184 30 3.74998C30 1.67812 28.3218 0 26.25 0C24.1781 0 22.5 1.67812 22.5 3.74998C22.5 5.82184 24.1781 7.49996 26.25 7.49996Z" fill="black"/>
<path d="M30 14.9999C30 17.0717 28.3218 18.7498 26.25 18.7498C24.1781 18.7498 22.5 17.0717 22.5 14.9999C22.5 12.928 24.1781 11.2499 26.25 11.2499C28.3218 11.2499 30 12.928 30 14.9999Z" fill="black"/>
<path d="M26.25 29.9998C28.3218 29.9998 30 28.3217 30 26.2499C30 24.178 28.3218 22.4999 26.25 22.4999C24.1781 22.4999 22.5 24.178 22.5 26.2499C22.5 28.3217 24.1781 29.9998 26.25 29.9998Z" fill="black"/>
</svg>
