<svg width="21" height="19" viewBox="0 0 21 19" fill="none" xmlns="http://www.w3.org/2000/svg">
<g opacity="0.4">
<path d="M19.457 11.962H15.57C14.8901 11.962 14.2381 11.6919 13.7573 11.2111C13.2766 10.7304 13.0065 10.0783 13.0065 9.39846C13.0065 8.71858 13.2766 8.06654 13.7573 7.58579C14.2381 7.10504 14.8901 6.83496 15.57 6.83496H19.427" stroke="black" stroke-width="1.5" stroke-linecap="round" stroke-linejoin="round"/>
<path d="M16.0081 9.33911H15.7111" stroke="black" stroke-width="1.5" stroke-linecap="round" stroke-linejoin="round"/>
<path d="M5.89197 5.42993H9.95197" stroke="black" stroke-width="1.5" stroke-linecap="round" stroke-linejoin="round"/>
<path fill-rule="evenodd" clip-rule="evenodd" d="M1 9.539C1 3.134 3.326 1 10.301 1C17.276 1 19.601 3.134 19.601 9.54C19.601 15.943 17.276 18.078 10.301 18.078C3.325 18.078 1.001 15.943 1.001 9.539H1Z" stroke="black" stroke-width="1.5" stroke-linecap="round" stroke-linejoin="round"/>
</g>
</svg>
