<svg width="24" height="24" viewBox="0 0 24 24" fill="none" xmlns="http://www.w3.org/2000/svg">
<path fill-rule="evenodd" clip-rule="evenodd" d="M11.845 21.6618C8.153 21.6618 5 21.0868 5 18.7868C5 16.4858 8.133 14.3618 11.845 14.3618C15.536 14.3618 18.689 16.4648 18.689 18.7658C18.689 21.0658 15.556 21.6618 11.845 21.6618Z" stroke="white" stroke-width="1.5" stroke-linecap="round" stroke-linejoin="round"/>
<path fill-rule="evenodd" clip-rule="evenodd" d="M11.837 11.1739C13.0005 11.1739 14.1163 10.7117 14.9391 9.88898C15.7618 9.06626 16.224 7.95041 16.224 6.7869C16.224 5.6234 15.7618 4.50755 14.9391 3.68482C14.1163 2.8621 13.0005 2.3999 11.837 2.3999C10.6736 2.40017 9.55786 2.86245 8.7352 3.68512C7.91253 4.50778 7.45025 5.62348 7.44998 6.7869C7.44788 7.361 7.55888 7.92988 7.77667 8.46106C7.99445 8.99225 8.31474 9.47533 8.71925 9.88271C9.12375 10.2901 9.60455 10.6138 10.1342 10.8354C10.6638 11.0569 11.2319 11.1719 11.806 11.1739L11.837 11.1739Z" stroke="white" stroke-width="1.5" stroke-linecap="round" stroke-linejoin="round"/>
</svg>
