<svg width="25" height="24" viewBox="0 0 25 24" fill="none" xmlns="http://www.w3.org/2000/svg">
<path d="M16.7099 22.75H7.71991C5.99991 22.75 4.70991 22.29 3.90991 21.38C3.10991 20.47 2.7999 19.15 3.0099 17.44L3.90991 9.94C4.16991 7.73 4.72991 5.75 8.62991 5.75H15.8299C19.7199 5.75 20.2799 7.73 20.5499 9.94L21.4499 17.44C21.6499 19.15 21.3499 20.48 20.5499 21.38C19.7199 22.29 18.4399 22.75 16.7099 22.75ZM8.6199 7.25C5.7399 7.25 5.5999 8.38999 5.3899 10.11L4.48991 17.61C4.33991 18.88 4.5199 19.81 5.0299 20.38C5.5399 20.95 6.43991 21.24 7.71991 21.24H16.7099C17.9899 21.24 18.8899 20.95 19.3999 20.38C19.9099 19.81 20.0899 18.88 19.9399 17.61L19.0399 10.11C18.8299 8.37999 18.6999 7.25 15.8099 7.25H8.6199Z" fill="white"/>
<path d="M16.22 8.75C15.81 8.75 15.47 8.41 15.47 8V4.5C15.47 3.42 14.8 2.75 13.72 2.75H10.72C9.63997 2.75 8.96997 3.42 8.96997 4.5V8C8.96997 8.41 8.62997 8.75 8.21997 8.75C7.80997 8.75 7.46997 8.41 7.46997 8V4.5C7.46997 2.59 8.80997 1.25 10.72 1.25H13.72C15.63 1.25 16.97 2.59 16.97 4.5V8C16.97 8.41 16.63 8.75 16.22 8.75Z" fill="white"/>
<path d="M20.63 17.78H8.21997C7.80997 17.78 7.46997 17.44 7.46997 17.03C7.46997 16.62 7.80997 16.28 8.21997 16.28H20.63C21.04 16.28 21.38 16.62 21.38 17.03C21.38 17.44 21.04 17.78 20.63 17.78Z" fill="white"/>
</svg>
