<svg width="30" height="8" viewBox="0 0 30 8" fill="none" xmlns="http://www.w3.org/2000/svg">
<path d="M3.74998 7.49996C5.82184 7.49996 7.49996 5.82184 7.49996 3.74998C7.49996 1.67812 5.82184 0 3.74998 0C1.67812 0 0 1.67812 0 3.74998C0 5.82184 1.67812 7.49996 3.74998 7.49996Z" fill="white"/>
<path d="M18.7501 3.74998C18.7501 5.82184 17.072 7.49996 15.0001 7.49996C12.9282 7.49996 11.2501 5.82184 11.2501 3.74998C11.2501 1.67812 12.9282 0 15.0001 0C17.072 0 18.7501 1.67812 18.7501 3.74998Z" fill="white"/>
<path d="M26.25 7.49996C28.3218 7.49996 30 5.82184 30 3.74998C30 1.67812 28.3218 0 26.25 0C24.1781 0 22.5 1.67812 22.5 3.74998C22.5 5.82184 24.1781 7.49996 26.25 7.49996Z" fill="white"/>
</svg>
