<svg width="24" height="24" viewBox="0 0 24 24" fill="none" xmlns="http://www.w3.org/2000/svg">
<path fill-rule="evenodd" clip-rule="evenodd" d="M11.845 21.6621C8.153 21.6621 5 21.0871 5 18.7871C5 16.4861 8.133 14.3621 11.845 14.3621C15.536 14.3621 18.689 16.4651 18.689 18.7661C18.689 21.0661 15.556 21.6621 11.845 21.6621Z" stroke="white" stroke-width="1.5" stroke-linecap="round" stroke-linejoin="round"/>
<path fill-rule="evenodd" clip-rule="evenodd" d="M11.837 11.174C13.0005 11.174 14.1164 10.7118 14.9391 9.8891C15.7618 9.06638 16.224 7.95053 16.224 6.78702C16.224 5.62352 15.7618 4.50767 14.9391 3.68495C14.1164 2.86222 13.0005 2.40002 11.837 2.40002C10.6736 2.40029 9.55788 2.86258 8.73521 3.68524C7.91255 4.5079 7.45026 5.6236 7.45 6.78702C7.44789 7.36112 7.5589 7.93 7.77668 8.46119C7.99447 8.99237 8.31476 9.47545 8.71926 9.88284C9.12377 10.2902 9.60457 10.6139 10.1342 10.8355C10.6638 11.057 11.2319 11.1721 11.806 11.174L11.837 11.174Z" stroke="white" stroke-width="1.5" stroke-linecap="round" stroke-linejoin="round"/>
</svg>
