<svg width="107" height="32" viewBox="0 0 107 32" fill="none" xmlns="http://www.w3.org/2000/svg">
<path d="M54.8468 30.1737H51.3871V6.95382L46.927 11.6645L44.8428 9.53844L51.8039 2.36819H54.8468V30.1737Z" fill="#9CACB2"/>
<path d="M70.8477 30.674C69.0137 30.674 67.388 30.2571 65.9708 29.4234C64.5813 28.5618 63.4698 27.4224 62.6361 26.005C61.8302 24.5876 61.2188 23.0591 60.802 21.4194C60.413 19.7797 60.2185 18.0705 60.2185 16.2918C60.2185 14.5131 60.413 12.804 60.802 11.1643C61.2188 9.52454 61.8302 8.0099 62.6361 6.62032C63.4698 5.20294 64.5813 4.07738 65.9708 3.24363C67.388 2.38209 69.0137 1.95132 70.8477 1.95132C72.654 1.95132 74.2658 2.38209 75.683 3.24363C77.1003 4.07738 78.2118 5.20294 79.0177 6.62032C79.8514 8.0099 80.4627 9.52454 80.8518 11.1643C81.2686 12.804 81.477 14.5131 81.477 16.2918C81.477 18.0705 81.2686 19.7797 80.8518 21.4194C80.4627 23.0591 79.8514 24.5876 79.0177 26.005C78.2118 27.4224 77.1003 28.5618 75.683 29.4234C74.2658 30.2571 72.654 30.674 70.8477 30.674ZM66.6794 25.8799C67.7909 27.0194 69.1804 27.5891 70.8477 27.5891C72.5151 27.5891 73.9045 27.0194 75.0161 25.8799C76.1276 24.7127 76.8918 23.3231 77.3087 21.7112C77.7255 20.0993 77.9339 18.2928 77.9339 16.2918C77.9339 14.2908 77.7255 12.4844 77.3087 10.8724C76.8918 9.26052 76.1276 7.88484 75.0161 6.74538C73.9045 5.60592 72.5151 5.03619 70.8477 5.03619C69.1804 5.03619 67.7909 5.60592 66.6794 6.74538C65.5678 7.88484 64.8036 9.26052 64.3868 10.8724C63.97 12.4844 63.7615 14.2908 63.7615 16.2918C63.7615 18.2928 63.97 20.0993 64.3868 21.7112C64.8036 23.3231 65.5678 24.7127 66.6794 25.8799Z" fill="#9CACB2"/>
<path d="M96.3707 30.674C94.5367 30.674 92.911 30.2571 91.4938 29.4234C90.1043 28.5618 88.9928 27.4224 88.1591 26.005C87.3532 24.5876 86.7418 23.0591 86.325 21.4194C85.936 19.7797 85.7414 18.0705 85.7414 16.2918C85.7414 14.5131 85.936 12.804 86.325 11.1643C86.7418 9.52454 87.3532 8.0099 88.1591 6.62032C88.9928 5.20294 90.1043 4.07738 91.4938 3.24363C92.911 2.38209 94.5367 1.95132 96.3707 1.95132C98.177 1.95132 99.7888 2.38209 101.206 3.24363C102.623 4.07738 103.735 5.20294 104.541 6.62032C105.374 8.0099 105.986 9.52454 106.375 11.1643C106.792 12.804 107 14.5131 107 16.2918C107 18.0705 106.792 19.7797 106.375 21.4194C105.986 23.0591 105.374 24.5876 104.541 26.005C103.735 27.4224 102.623 28.5618 101.206 29.4234C99.7888 30.2571 98.177 30.674 96.3707 30.674ZM92.2024 25.8799C93.3139 27.0194 94.7034 27.5891 96.3707 27.5891C98.0381 27.5891 99.4275 27.0194 100.539 25.8799C101.651 24.7127 102.415 23.3231 102.832 21.7112C103.248 20.0993 103.457 18.2928 103.457 16.2918C103.457 14.2908 103.248 12.4844 102.832 10.8724C102.415 9.26052 101.651 7.88484 100.539 6.74538C99.4275 5.60592 98.0381 5.03619 96.3707 5.03619C94.7034 5.03619 93.3139 5.60592 92.2024 6.74538C91.0908 7.88484 90.3266 9.26052 89.9098 10.8724C89.4929 12.4844 89.2845 14.2908 89.2845 16.2918C89.2845 18.2928 89.4929 20.0993 89.9098 21.7112C90.3266 23.3231 91.0908 24.7127 92.2024 25.8799Z" fill="#9CACB2"/>
<path d="M15.152 32C14.2314 32 13.5871 31.687 13.2005 31.3924C12.4641 30.8585 11.3226 29.4776 12.0406 26.3843L13.09 21.855C13.182 21.4683 12.9795 20.7687 12.7034 20.4741L9.03976 16.8101C7.10669 14.8769 7.27237 13.2014 7.53011 12.3728C7.78785 11.5443 8.63472 10.0897 11.3226 9.62945L16.0172 8.85615C16.367 8.80091 16.9377 8.37745 17.085 8.06445L19.6809 2.87226C20.9327 0.368235 22.5897 0 23.4734 0C24.357 0 26.014 0.368235 27.2658 2.87226L29.8617 8.06445C30.0274 8.37745 30.5797 8.80091 30.9295 8.85615L35.6241 9.62945C38.312 10.0713 39.1589 11.5443 39.4166 12.3728C39.6743 13.2014 39.84 14.8769 37.9069 16.8101L34.2433 20.4741C33.9672 20.7503 33.7647 21.4683 33.8567 21.855L34.9061 26.3843C35.6241 29.496 34.4826 30.8585 33.7462 31.3924C33.0098 31.9263 31.3713 32.6076 28.6098 30.9689L24.2097 28.3544C23.8415 28.1335 23.0683 28.1335 22.7001 28.3544L18.3001 30.9689C17.0298 31.7422 15.962 32 15.152 32ZM23.4734 2.76179C23.1788 2.76179 22.6449 3.11161 22.1478 4.10586L19.552 9.29805C18.9997 10.4212 17.6926 11.3786 16.4591 11.5811L11.7645 12.3544C10.7151 12.5386 10.2364 12.9252 10.1444 13.2198C10.0523 13.5144 10.218 14.1036 10.9728 14.8585L14.6365 18.5224C15.5754 19.4614 16.0725 21.1738 15.7779 22.4626L14.7285 26.9919C14.4155 28.2992 14.618 28.9988 14.8205 29.1645C15.023 29.3118 15.7595 29.2934 16.9009 28.5938L21.3193 25.9793C22.5528 25.2428 24.4123 25.2428 25.6274 25.9793L30.0274 28.5938C31.1872 29.275 31.9237 29.3118 32.1262 29.1645C32.3287 29.0172 32.5312 28.3176 32.2182 26.9919L31.1688 22.4626C30.8742 21.1553 31.3529 19.4614 32.3102 18.5224L35.9739 14.8585C36.7287 14.1036 36.8944 13.496 36.8023 13.2198C36.7103 12.9436 36.2316 12.5386 35.1822 12.3544L30.4876 11.5811C29.2541 11.3786 27.947 10.4212 27.3947 9.29805L24.7989 4.10586C24.3018 3.11161 23.7679 2.76179 23.4734 2.76179Z" fill="#9CACB2"/>
<path d="M12.4269 4.49252H1.38077C0.625947 4.49252 0 3.86652 0 3.11163C0 2.35674 0.625947 1.73073 1.38077 1.73073H12.4269C13.1817 1.73073 13.8077 2.35674 13.8077 3.11163C13.8077 3.86652 13.1817 4.49252 12.4269 4.49252Z" fill="#9CACB2"/>
<path d="M6.90383 30.2693H1.38077C0.625947 30.2693 0 29.6433 0 28.8884C0 28.1335 0.625947 27.5075 1.38077 27.5075H6.90383C7.65864 27.5075 8.28459 28.1335 8.28459 28.8884C8.28459 29.6433 7.65864 30.2693 6.90383 30.2693Z" fill="#9CACB2"/>
<path d="M3.22179 17.3809H1.38077C0.625947 17.3809 0 16.7549 0 16C0 15.2451 0.625947 14.6191 1.38077 14.6191H3.22179C3.9766 14.6191 4.60255 15.2451 4.60255 16C4.60255 16.7549 3.9766 17.3809 3.22179 17.3809Z" fill="#9CACB2"/>
</svg>
